<svg xmlns="http://www.w3.org/2000/svg" viewBox="0 0 64 64">
  <defs>
    <radialGradient id="space" cx="50%" cy="50%" r="70%">
      <stop offset="0%" stop-color="#1a1043"/>
      <stop offset="100%" stop-color="#05030f"/>
    </radialGradient>
    <radialGradient id="potato" cx="40%" cy="35%" r="65%">
      <stop offset="0%" stop-color="#e8c089"/>
      <stop offset="60%" stop-color="#c08850"/>
      <stop offset="100%" stop-color="#7a4f24"/>
    </radialGradient>
  </defs>
  <rect width="64" height="64" rx="10" fill="url(#space)"/>
  <circle cx="9" cy="11" r="0.7" fill="#ffffff"/>
  <circle cx="55" cy="14" r="0.5" fill="#a9b8ff"/>
  <circle cx="52" cy="49" r="0.6" fill="#ffffff"/>
  <circle cx="13" cy="52" r="0.5" fill="#ffd6a9"/>
  <circle cx="58" cy="33" r="0.4" fill="#ffffff"/>
  <g transform="rotate(-12 32 34)">
    <path d="M 32 12
             C 46 12 53 22 52 34
             C 51 46 44 56 32 56
             C 20 56 13 46 12 34
             C 11 22 18 12 32 12 Z"
          fill="url(#potato)" stroke="#5a3a18" stroke-width="0.8"/>
    <ellipse cx="24" cy="22" rx="6" ry="9" fill="#f0d4a0" opacity="0.45"/>
    <circle cx="22" cy="34" r="1.6" fill="#3d2410"/>
    <circle cx="36" cy="26" r="1.3" fill="#3d2410"/>
    <circle cx="40" cy="42" r="1.5" fill="#3d2410"/>
    <circle cx="26" cy="46" r="1.2" fill="#3d2410"/>
    <circle cx="44" cy="33" r="1.0" fill="#3d2410"/>
    <path d="M 28 13 q 1.5 -5 4 -2 q 2.5 -3 4 2"
          stroke="#5aa83a" stroke-width="1.4" fill="none" stroke-linecap="round"/>
    <ellipse cx="30" cy="11" rx="1.6" ry="0.9" fill="#7ed064"/>
  </g>
</svg>
